#!OML:ASF X:\für Bonn\!DataBase\2005_08_12_Daniel\c3d\Daniel.ASF
:FULLY-SPECIFIED
:DEGREES
35
root -3.55324 17.2601 0.123407 409.646 -81.1627 -432.54
lowerback 38.6868 -17.8751 -2.54678
upperback 10.4401 -25.1405 0.152257
thorax -4.87712 -13.0841 10.242
lowerneck 10.6711 13.5584 0.869933
upperneck 3.0417 17.6845 -8.6265
head 0.127522 8.83953 -3.34575
rclavicle -4.31363e-014 1.31198e-013
rhumerus -58.5618 15.3641 -76.6614
rradius 49.7045
rwrist 14.6223
rhand -38.7071 41.3988
rfingers 7.12502
rthumb -11.7212 11.7467
lclavicle -4.31363e-014 1.31198e-013
lhumerus 42.1304 3.15053 73.324
lradius 121.229
lwrist 30.014
lhand -13.6966 -14.5833
lfingers 7.12502
lthumb 12.4217 15.0277
rfemur -51.4832 -9.57909 22.247
rtibia 101.413
rfoot -4.42992 10.8972
rtoes -10.7471
lfemur 9.22942 -12.8081 -20.746
ltibia 33.3386
lfoot -23.0104 4.285
ltoes 6.22961
36
root -3.53357 17.2632 0.149421 410.031 -81.0691 -433.783
lowerback 40.1907 -17.9432 -2.99783
upperback 10.7515 -25.4882 -0.0279154
thorax -4.86657 -13.3084 10.5836
lowerneck 10.8189 13.7366 0.869826
upperneck 2.67176 17.9008 -8.70099
head 0.00235324 8.96586 -3.40269
rclavicle -4.87022e-014 6.83819e-014
rhumerus -59.1008 15.0881 -76.5307
rradius 48.4771
rwrist 15.6613
rhand -38.6955 42.281
rfingers 7.12502
rthumb -11.71 12.6282
lclavicle -4.87022e-014 6.83819e-014
lhumerus 42.8444 3.16534 73.2134
lradius 121.749
lwrist 30.2453
lhand -13.4911 -15.0701
lfingers 7.12502
lthumb 12.6198 14.5287
rfemur -53.9593 -10.1463 22.5112
rtibia 103.771
rfoot -4.37923 11.2871
rtoes -10.3791
lfemur 10.5042 -12.8729 -20.9321
ltibia 32.6685
lfoot -22.7968 4.61273
ltoes 6.2114
37
root -3.51827 17.2708 0.17381 410.234 -80.9777 -434.846
lowerback 41.6224 -17.9807 -3.41907
upperback 11.078 -25.8022 -0.229008
thorax -4.82061 -13.5204 10.8564
lowerneck 11.0726 13.8801 0.908523
upperneck 2.21378 18.0686 -8.78644
head -0.167903 9.07366 -3.48414
rclavicle 4.51241e-014 -6.20208e-014
rhumerus -59.5591 14.6453 -76.2979
rradius 47.1972
rwrist 16.8514
rhand -38.7491 43.2763
rfingers 7.12502
rthumb -11.7618 13.6265
lclavicle 4.51241e-014 -6.20208e-014
lhumerus 43.5212 3.04829 73.1413
lradius 122.249
lwrist 30.3438
lhand -13.2563 -15.5263
lfingers 7.12502
lthumb 12.8461 14.0584
rfemur -56.3861 -10.7146 22.7973
rtibia 105.97
rfoot -4.31893 11.6812
rtoes -9.90433
lfemur 11.8226 -12.9041 -21.1188
ltibia 31.9548
lfoot -22.5571 4.92177
ltoes 6.25753
38
root -3.50789 17.2792 0.197197 410.528 -80.9076 -435.98
lowerback 42.9965 -17.9914 -3.81747
upperback 11.4055 -26.0874 -0.446226
thorax -4.75742 -13.72 11.0759
lowerneck 11.3791 14.0014 0.962547
upperneck 1.72561 18.2068 -8.84687
head -0.360289 9.1681 -3.56805
rclavicle -5.9039e-014 1.17681e-013
rhumerus -60.0468 14.2782 -76.127
rradius 46.0241
rwrist 17.8585
rhand -38.8555 44.1775
rfingers 7.12502
rthumb -11.8644 14.5337
lclavicle -5.9039e-014 1.17681e-013
lhumerus 44.2618 2.89771 73.0386
lradius 122.64
lwrist 30.47
lhand -13.034 -15.8808
lfingers 7.12502
lthumb 13.0605 13.6903
rfemur -58.8271 -11.2433 23.1228
rtibia 108.036
rfoot -4.26103 12.1981
rtoes -9.6988
lfemur 13.1438 -12.8888 -21.2995
ltibia 31.2263
lfoot -22.327 5.20266
ltoes 6.18792
39
root -3.50055 17.2841 0.218736 411.038 -80.8323 -437.26
lowerback 44.2721 -17.9688 -4.14457
upperback 11.719 -26.3078 -0.647986
thorax -4.69325 -13.8864 11.2405
lowerneck 11.6385 14.0839 1.05751
upperneck 1.27913 18.3044 -8.90919
head -0.530239 9.24021 -3.65309
rclavicle -1.10524e-013 2.62396e-014
rhumerus -60.5378 13.8343 -75.9452
rradius 44.8991
rwrist 18.7716
rhand -38.8821 44.9258
rfingers 7.12502
rthumb -11.8899 15.2834
lclavicle -1.10524e-013 2.62396e-014
lhumerus 44.9403 2.62141 72.9905
lradius 123.082
lwrist 30.5562
lhand -12.7144 -16.0704
lfingers 7.12502
lthumb 13.3685 13.4807
rfemur -61.3668 -11.72 23.5428
rtibia 109.981
rfoot -4.10877 12.7641
rtoes -9.68845
lfemur 14.3684 -12.8186 -21.4059
ltibia 30.5186
lfoot -22.0774 5.4185
ltoes 6.14739
40
root -3.49345 17.2862 0.240299 411.602 -80.7585 -438.527
lowerback 45.4551 -17.925 -4.42627
upperback 12.017 -26.4866 -0.823832
thorax -4.61764 -14.0333 11.3779
lowerneck 11.8194 14.1459 1.10469
upperneck 0.851802 18.3761 -8.91297
head -0.693005 9.29594 -3.70493
rclavicle -1.83279e-013 8.50798e-014
rhumerus -61.0678 13.4402 -75.8187
rradius 43.911
rwrist 19.4724
rhand -38.9119 45.3
rfingers 7.12502
rthumb -11.9187 15.6593
lclavicle -1.83279e-013 8.50798e-014
lhumerus 45.6271 2.27683 72.9698
lradius 123.503
lwrist 30.6152
lhand -12.4756 -16.074
lfingers 7.12502
lthumb 13.5987 13.4618
rfemur -64.0011 -12.1575 24.0394
rtibia 111.802
rfoot -3.94592 13.3322
rtoes -9.94119
lfemur 15.4876 -12.6941 -21.4711
ltibia 29.8507
lfoot -21.8137 5.59977
ltoes 6.1254
41
root -3.48864 17.2883 0.261008 412.316 -80.7045 -439.881
lowerback 46.5517 -17.8519 -4.7034
upperback 12.3054 -26.6318 -0.985515
thorax -4.51977 -14.1666 11.4944
lowerneck 11.9001 14.1952 1.21408
upperneck 0.483614 18.4487 -8.9262
head -0.812788 9.34924 -3.75633
rclavicle 1.37957e-013 6.52014e-014
rhumerus -61.5459 13.11 -75.7347
rradius 42.9051
rwrist 20.0406
rhand -38.9561 45.4925
rfingers 7.12502
rthumb -11.9613 15.8543
lclavicle 1.37957e-013 6.52014e-014
lhumerus 46.276 1.88984 72.9407
lradius 123.884
lwrist 30.6446
lhand -12.2564 -15.9534
lfingers 7.12502
lthumb 13.8099 13.5682
rfemur -66.6946 -12.493 24.599
rtibia 113.487
rfoot -3.82693 13.8524
rtoes -10.4568
lfemur 16.5152 -12.4868 -21.4838
ltibia 29.2205
lfoot -21.5508 5.66386
ltoes 6.14997
42
root -3.48369 17.2941 0.281239 413.043 -80.6222 -441.207
lowerback 47.5937 -17.7703 -4.92542
upperback 12.5798 -26.7446 -1.11547
thorax -4.42202 -14.2846 11.5978
lowerneck 11.9706 14.2287 1.27887
upperneck 0.0972152 18.4955 -8.91362
head -0.945502 9.38887 -3.79351
rclavicle -7.71285e-014 1.27222e-014
rhumerus -61.9479 12.7669 -75.6443
rradius 41.8789
rwrist 20.5082
rhand -38.9685 45.4858
rfingers 7.12502
rthumb -11.9733 15.8483
lclavicle -7.71285e-014 1.27222e-014
lhumerus 46.902 1.46605 72.9007
lradius 124.278
lwrist 30.6823
lhand -12.1979 -15.6448
lfingers 7.12502
lthumb 13.8663 13.873
rfemur -69.3672 -12.9487 25.262
rtibia 114.986
rfoot -3.77926 14.3894
rtoes -11.2265
lfemur 17.4743 -12.2249 -21.406
ltibia 28.5998
lfoot -21.2459 5.66738
ltoes 6.16955
